<?xml version="1.0" encoding="UTF-8"?>
<svg id="Layer_1" xmlns="http://www.w3.org/2000/svg" version="1.1" viewBox="0 0 1000 1000">
  <!-- Generator: Adobe Illustrator 29.1.0, SVG Export Plug-In . SVG Version: 2.1.0 Build 142)  -->
  <defs>
    <style>
      .st0 {
        fill: #fff;
      }
    </style>
  </defs>
  <g id="QUNAMU.tif">
    <g>
      <path class="st0" d="M644.61,264.94h19.15c3.79,0,12.54-4.27,14.22-8.31,4.98-12.01-25.38-34.35-22.5-47.47,2.86-13.06,23.09-6.87,31.13-6.62,2.12.07,2.69.58,4.19-1.64-7.15-21.56-47.22-15.71-54.39,2.33-5.89,14.81,5.74,28.71,14.81,39.24-8.47-.45-33.87,2.13-36.71,11.51-3.68,12.17,14.06,26.32,20.86,34.71-38.28.4-30.73,35.71-12.56,56.81,5.13,5.96,13.97,15.4,21.62,8.38,3.09-16.31-10.16-28.45-14.34-42.73,8.59-.33,31.99-3.24,33.11-13.83,1.4-13.31-12.74-22.09-18.58-32.4ZM333.78,217.49l-31.12,32.08,32.08,31.12,31.12-32.08-32.08-31.12ZM383.78,323.04h31.7c1.18,0,8.79-2.09,10.44-2.76,14.03-5.72,5.68-20.3-.54-28.92,22.73,5.1,46.96-10.5,27.7-33.65-2.45-2.95-5.05-3.98-7.04-5.87-1.11-1.05-1.2-.9-.85-2.74,7.14.75,19.11-10.98,17.03-17.61-1.1-3.51-14.1-4.98-17.69-4.97-29.42.02-30.5,24.07-13.87,42.36-13.53-2.21-35.76.14-32.71,18.84.88,5.42,4.83,9.22,6.29,14.18-44.59-7-45.48,33.4-28.41,63.42,5.16,9.07,14.44,20.9,25.77,21.1-4.38-20.96-22.01-37.95-19.59-61.19l1.77-2.19ZM727.42,251.87c-2.09.55-30.03,28.73-30.03,30.89l31.08,31.08,31.08-31.08c0-1.67-1.16-2.3-1.97-3.36-3-3.94-22.77-23.98-26.41-26.43-1.33-.9-1.92-1.59-3.76-1.1ZM208.32,267.68l-31.12,31.12,30.94,30.9,32.33-31.08-32.15-30.94ZM253.04,367.97l-30.94,32.15,30.94,31.19,30.94-32.15-30.94-31.19ZM780.24,588.62c-2.08.55-30.26,28.6-29.88,30.71l32.08,31.12,29.94-30.94c.08-1.17-.72-1.84-1.29-2.7-1.72-2.59-24.48-25.33-27.09-27.09-1.33-.9-1.92-1.59-3.76-1.1ZM679.87,599.18c-2.09.55-30.03,28.73-30.03,30.89l31.08,31.08,31.08-31.08c0-1.67-1.16-2.3-1.97-3.36-3-3.94-22.77-23.98-26.41-26.43-1.33-.9-1.92-1.59-3.76-1.1ZM609.61,707.35l-30.94,32.15,32.08,31.12,29.94-30.94-31.08-32.33ZM748.55,733.88c-2.08.55-30.26,28.6-29.88,30.71l30.94,31.19,30.94-32.15c-8.99-7.16-19.31-22.65-28.24-28.65-1.33-.9-1.92-1.59-3.76-1.1Z"/>
      <path d="M511.23,172.5c33.67,47.51,60.28,118.16,33.96,174.59-6.84,14.66-19.91,28.74-32.01,39.3-10.91,9.52-65.24,45.7-65.36,57.51l50.84,44.22c20.66-33.54,42.45-68.34,76.07-90.35,36.91-24.16,80.75-31.39,124.42-30.09,14.06-12.8,28.54-25.67,46.57-32.75,2.53-.35,1.58.34,2.24,1.67,1.4,2.81,10.59,27.68,10.34,29.21-3.64,2.94-9.09,3.35-12.95,5.76-1.36.85-2.31-.07-1.69,2.97l46.22,11.92-12.76,31.53-73.05-12.49c-47.47,52.86-53.24,154.12-137.37,165.83,6.33,12.36,13.85,24.09,19.11,37.01,9.94,24.44,20.87,62.53-12.16,73.59l-410.4,142.95c45.35-127.39,86.7-256.45,132.69-383.66,3.22-8.9,7.95-26.63,12.66-33.56,16.43-24.19,59.06-8.28,80.29,1.42,18.19,8.32,34.66,19.68,51.59,30.16,25.5-40.99,77.49-59.64,89.62-109.87,9.65-40.01-5.4-82.39-28.35-115.02-4.68-6.65-10.08-12.87-15.51-18.91l23.68-22.93h1.32ZM674.99,402.29c-39.08-.77-79.22-1.01-111.56,23.79-23.67,18.16-40.57,43.76-58.2,67.38l57.52,71.98c35.38-4.33,57.74-35.38,71.53-65.87,14.34-31.71,22.56-66.95,40.71-97.28ZM523.11,675.62c-.12-1.87-2.03-2.03-3.26-2.67-82.17-42.48-155.81-104.18-199.49-187.45-3.24-6.18-4.98-13.96-9.86-18.51-.38,6.26-5.7,13.66-6.38,19.5-.9,7.85,16.61,36.97,21.66,45.09,21.22,34.15,49.17,63.03,81.11,87.26l-126.76-63.37-21.89,67.35,177.24,82.86,87.63-30.05ZM339.54,740.33l-104.91-50.13-23.3,66.46c11.17,5.49,23,12.41,34.94,15.34l93.27-31.67Z"/>
      <path d="M838.75,494.72c-10.08,28.62-45.17,3.96-63.38-2.63,2.08,9.24,11.93,38.23-.94,41.98-14,4.07-31.85-7.61-45.28-10.29.72,13.23-5.8,48.19-22.11,49.91-13,1.37-38.69-30.62-45.31-41.34-.02-1.89,13.99-14.17,16.39-13.69,8.8,10.18,16.34,21.31,26.58,30.17,3.95.17,3.23-45.51,21.1-47.54,12.22-1.39,21.76,6.28,32.38,10.58-5.77-17.72-19.69-50.52,13.23-42.92,15.35,3.54,30.46,12.91,44.88,19.16.52-4.26-1.29-10.46,1.23-13.97,1.69-2.36,18.39-9.55,18.59-2.54l2.64,11.22v11.89Z"/>
      <path d="M644.61,264.94c5.84,10.3,19.98,19.08,18.58,32.4-1.12,10.59-24.52,13.5-33.11,13.83,4.18,14.28,17.43,26.42,14.34,42.73-7.65,7.01-16.49-2.43-21.62-8.38-18.16-21.1-25.71-56.42,12.56-56.81-6.8-8.39-24.53-22.54-20.86-34.71,2.83-9.39,28.24-11.96,36.71-11.51-9.07-10.53-20.7-24.43-14.81-39.24,7.17-18.04,47.24-23.9,54.39-2.33-1.5,2.22-2.06,1.71-4.19,1.64-8.05-.26-28.27-6.44-31.13,6.62-2.88,13.12,27.48,35.46,22.5,47.47-1.68,4.04-10.43,8.31-14.22,8.31h-19.15Z"/>
      <path d="M383.78,323.04l-1.77,2.19c-2.42,23.25,15.21,40.23,19.59,61.19-11.33-.2-20.61-12.02-25.77-21.1-17.07-30.02-16.18-70.42,28.41-63.42-1.46-4.96-5.4-8.76-6.29-14.18-3.05-18.7,19.17-21.05,32.71-18.84-16.63-18.3-15.55-42.34,13.87-42.36,3.59,0,16.59,1.47,17.69,4.97,2.08,6.63-9.89,18.36-17.03,17.61-.36,1.84-.26,1.68.85,2.74,1.99,1.89,4.59,2.92,7.04,5.87,19.26,23.15-4.97,38.75-27.7,33.65,6.21,8.62,14.57,23.2.54,28.92-1.66.68-9.27,2.76-10.44,2.76h-31.7Z"/>
      <rect x="311.91" y="226.75" width="44.69" height="44.69" transform="translate(-77.27 315.57) rotate(-45.87)"/>
      <path d="M727.42,251.87c1.84-.48,2.42.21,3.76,1.1,3.64,2.45,23.41,22.49,26.41,26.43.81,1.06,1.97,1.7,1.97,3.36l-31.08,31.08-31.08-31.08c0-2.16,27.94-30.34,30.03-30.89Z"/>
      <path d="M679.87,599.18c1.84-.48,2.42.21,3.76,1.1,3.64,2.45,23.41,22.49,26.41,26.43.81,1.06,1.97,1.7,1.97,3.36l-31.08,31.08-31.08-31.08c0-2.16,27.94-30.34,30.03-30.89Z"/>
      <polygon points="208.32 267.68 240.47 298.61 208.14 329.69 177.2 298.8 208.32 267.68"/>
      <polygon points="609.61 707.35 640.7 739.68 610.75 770.62 578.67 739.5 609.61 707.35"/>
      <path d="M780.24,588.62c1.84-.48,2.42.21,3.76,1.1,2.61,1.76,25.37,24.5,27.09,27.09.57.86,1.37,1.53,1.29,2.7l-29.94,30.94-32.08-31.12c-.37-2.12,27.81-30.16,29.88-30.71Z"/>
      <polygon points="253.04 367.97 283.98 399.16 253.04 431.31 222.1 400.12 253.04 367.97"/>
      <path d="M748.55,733.88c1.84-.48,2.42.21,3.76,1.1,8.93,6,19.25,21.49,28.24,28.65l-30.94,32.15-30.94-31.19c-.37-2.12,27.81-30.16,29.88-30.71Z"/>
      <path class="st0" d="M674.99,402.29c-18.15,30.32-26.37,65.57-40.71,97.28-13.79,30.5-36.14,61.54-71.53,65.87l-57.52-71.98c17.63-23.62,34.53-49.23,58.2-67.38,32.34-24.8,72.48-24.57,111.56-23.79Z"/>
    </g>
  </g>
</svg>