<?xml version="1.0" encoding="UTF-8"?>
<svg id="OBJECTS" xmlns="http://www.w3.org/2000/svg" xmlns:xlink="http://www.w3.org/1999/xlink" version="1.1" viewBox="0 0 1693.13 922.51">
  <!-- Generator: Adobe Illustrator 29.1.0, SVG Export Plug-In . SVG Version: 2.1.0 Build 142)  -->
  <defs>
    <style>
      .st0, .st1, .st2, .st3, .st4, .st5, .st6, .st7, .st8, .st9, .st10, .st11 {
        fill: none;
      }

      .st1 {
        stroke: url(#_Безымянный_градиент_36);
        stroke-miterlimit: 10;
      }

      .st1, .st2, .st3, .st4, .st5, .st6, .st7, .st8, .st9, .st10, .st11 {
        stroke-width: 2.52px;
      }

      .st2 {
        stroke: url(#_Безымянный_градиент_22);
      }

      .st2, .st3, .st4, .st5, .st6, .st7, .st8, .st9, .st10, .st11 {
        stroke-linejoin: bevel;
      }

      .st3 {
        stroke: url(#_Безымянный_градиент_26);
      }

      .st4 {
        stroke: url(#_Безымянный_градиент_25);
      }

      .st5 {
        stroke: url(#_Безымянный_градиент_23);
      }

      .st6 {
        stroke: url(#_Безымянный_градиент_21);
      }

      .st7 {
        stroke: url(#_Безымянный_градиент_24);
      }

      .st8 {
        stroke: url(#_Безымянный_градиент_4);
      }

      .st9 {
        stroke: url(#_Безымянный_градиент_2);
      }

      .st10 {
        stroke: url(#_Безымянный_градиент_7);
      }

      .st11 {
        stroke: url(#_Безымянный_градиент_6);
      }

      .st12 {
        clip-path: url(#clippath);
      }
    </style>
    <clipPath id="clippath">
      <rect class="st0" x="145.59" y="-258.92" width="1401.95" height="1401.95" transform="translate(-77.33 683.95) rotate(-42.24)"/>
    </clipPath>
    <linearGradient id="_Безымянный_градиент_2" data-name="Безымянный градиент 2" x1="269.66" y1="469.85" x2="330.67" y2="469.85" gradientTransform="translate(-111.16 654.2) rotate(-42.24)" gradientUnits="userSpaceOnUse">
      <stop offset="0" stop-color="#c78f62"/>
      <stop offset=".06" stop-color="#cd9b73"/>
      <stop offset=".18" stop-color="#ddbca0"/>
      <stop offset=".35" stop-color="#f8f0e7"/>
      <stop offset="1" stop-color="#b07641"/>
    </linearGradient>
    <linearGradient id="_Безымянный_градиент_7" data-name="Безымянный градиент 7" x1="269.73" y1="455.66" x2="1432.02" y2="455.66" gradientTransform="translate(-111.16 654.2) rotate(-42.24)" gradientUnits="userSpaceOnUse">
      <stop offset="0" stop-color="#c78f62"/>
      <stop offset=".06" stop-color="#cd9b73"/>
      <stop offset=".18" stop-color="#ddbca0"/>
      <stop offset=".35" stop-color="#f8f0e7"/>
      <stop offset="1" stop-color="#b07641"/>
    </linearGradient>
    <linearGradient id="_Безымянный_градиент_21" data-name="Безымянный градиент 2" x1="569.89" y1="797.02" x2="597.38" y2="797.02" xlink:href="#_Безымянный_градиент_2"/>
    <linearGradient id="_Безымянный_градиент_22" data-name="Безымянный градиент 2" x1="304.96" y1="89.05" x2="1251.21" y2="89.05" xlink:href="#_Безымянный_градиент_2"/>
    <linearGradient id="_Безымянный_градиент_23" data-name="Безымянный градиент 2" x1="274.73" y1="604.34" x2="1396.6" y2="604.34" xlink:href="#_Безымянный_градиент_2"/>
    <linearGradient id="_Безымянный_градиент_24" data-name="Безымянный градиент 2" x1="451.32" y1="986.07" x2="922.91" y2="986.07" xlink:href="#_Безымянный_градиент_2"/>
    <linearGradient id="_Безымянный_градиент_4" data-name="Безымянный градиент 4" x1="919.55" y1="885.08" x2="1314.26" y2="885.08" gradientTransform="translate(-111.16 654.2) rotate(-42.24)" gradientUnits="userSpaceOnUse">
      <stop offset="0" stop-color="#c78f62"/>
      <stop offset=".06" stop-color="#cd9b73"/>
      <stop offset=".18" stop-color="#ddbca0"/>
      <stop offset=".35" stop-color="#f8f0e7"/>
      <stop offset="1" stop-color="#b07641"/>
    </linearGradient>
    <linearGradient id="_Безымянный_градиент_25" data-name="Безымянный градиент 2" x1="1372.06" y1="504.13" x2="1432.09" y2="504.13" xlink:href="#_Безымянный_градиент_2"/>
    <linearGradient id="_Безымянный_градиент_36" data-name="Безымянный градиент 36" x1="269.64" y1="487.8" x2="1432.1" y2="487.8" gradientTransform="translate(-111.16 654.2) rotate(-42.24)" gradientUnits="userSpaceOnUse">
      <stop offset="0" stop-color="#b07641"/>
      <stop offset=".65" stop-color="#f8f0e7"/>
      <stop offset=".82" stop-color="#ddbca0"/>
      <stop offset=".94" stop-color="#cd9b73"/>
      <stop offset="1" stop-color="#c78f62"/>
    </linearGradient>
    <linearGradient id="_Безымянный_градиент_26" data-name="Безымянный градиент 2" x1="448.8" y1="368.74" x2="1427.47" y2="368.74" xlink:href="#_Безымянный_градиент_2"/>
    <linearGradient id="_Безымянный_градиент_6" data-name="Безымянный градиент 6" x1="776.48" y1="87.25" x2="1136.31" y2="87.25" gradientTransform="translate(-111.16 654.2) rotate(-42.24)" gradientUnits="userSpaceOnUse">
      <stop offset="0" stop-color="#b07641"/>
      <stop offset=".65" stop-color="#f8f0e7"/>
      <stop offset=".82" stop-color="#ddbca0"/>
      <stop offset=".94" stop-color="#cd9b73"/>
      <stop offset="1" stop-color="#c78f62"/>
    </linearGradient>
  </defs>
  <g class="st12">
    <g>
      <line class="st9" x1="539.86" y1="968.1" x2="314" y2="632.35"/>
      <polygon class="st10" points="1551.95 408.45 1138.2 660.25 865.49 1058.07 727.4 728.01 539.86 968.1 416.92 656.6 141.67 478.64 434.74 98.68 826.74 -173.72 967.21 153.29 1152.05 -83.14 1275.64 228.21 1551.95 408.45"/>
      <line class="st6" x1="727.4" y1="728.01" x2="986.06" y2="975.67"/>
      <polyline class="st2" points="141.67 478.64 553.98 222.09 343.99 -.48 203.27 332.77 416.92 656.6 553.98 222.09 826.74 -173.72"/>
      <polyline class="st5" points="221.79 610.63 416.92 656.6 727.4 728.01 1255.36 786.38 1551.95 408.45"/>
      <line class="st7" x1="865.49" y1="1058.07" x2="1255.36" y2="786.38"/>
      <polyline class="st8" points="1349.63 886.76 1138.2 660.25 1275.64 228.21 1489.25 556.67"/>
      <line class="st4" x1="1152.05" y1="-83.14" x2="1379.34" y2="252.71"/>
      <polygon class="st1" points="343.99 -.48 826.74 -173.72 1152.05 -83.14 1470.7 274.3 1551.95 408.45 1349.63 886.76 865.49 1058.07 539.86 968.1 221.79 610.63 141.67 478.64 343.99 -.48"/>
      <polyline class="st3" points="203.27 332.77 434.74 98.68 967.21 153.29 1275.64 228.21 1470.7 274.3"/>
      <polyline class="st11" points="967.21 153.29 708.96 -90.57 343.99 -.48"/>
    </g>
  </g>
</svg>