<?xml version="1.0" encoding="UTF-8"?>
<svg id="Layer_1" xmlns="http://www.w3.org/2000/svg" version="1.1" viewBox="0 0 1000 1000">
  <!-- Generator: Adobe Illustrator 29.1.0, SVG Export Plug-In . SVG Version: 2.1.0 Build 142)  -->
  <g id="oF4q3V.tif">
    <g>
      <path d="M264.81,310.2c3.45-2.85,5.93-7.68,8.92-11.02,3.53-3.94,14.8-13.15,16.45-16.56,2.78-5.74,4.07-23.13,6.09-31.05,10.66-42,37.37-87.11,70.3-115.38,2.85-2.45,13.29-12.08,16.52-8.93-4.06,43.19-24.47,84.77-49.51,119.65,8.79-3.78,16.44-9.85,24.93-14.26,55.94-29.06,120.42-40.85,183.17-32.21,3.95,2,5.4,4.89,1.48,7.8-4.97,3.7-18.96,9.28-25.29,11.84-47.3,19.11-98.56,24.63-149.08,17.22-36.29,17.22-69.41,43.27-95.05,74.24-4.06,4.91-18,22.24-19.91,26.86-.26.63-.36,2.25.67,2.03,21.7-21.23,45.51-41.23,72.67-55.25,12.1-6.24,27.38-15.77,16.28,6.66-21.67,43.81-69.34,80.85-114.95,96.86l-1.93,2.2c-6.39,18.05-13.06,36.29-15.37,55.45,7.88-10.15,15.5-20.52,25.47-28.84,2.89-2.41,15.36-12.84,18.35-8.11-1.03,23.55-12.5,48.24-28,65.85-6.72,7.64-15.82,13.3-21.31,21.33-1.12,83.32,34.89,165.74,96.23,221.43,9.83,8.92,22.13,16.37,30.33,26.12-.94,4.83-4.19,3.74-7.73,2.17-5.12-2.27-21.02-16.18-26.06-20.7-98.79-88.63-129-233.34-72.2-354.24-11.13-14.55-21.44-32.32-23.19-51.02-1.03-10.95-1.15-22.36,10.82-10.82,11,10.59,19.11,28.1,20.66,43.31,2.85-2.79,9.52-11.83,10.44-15.11,1.24-4.41-9.01-21.46-11.11-27.55-5.82-16.83-8.89-39.29-7.57-57.03.44-5.87,1.53-15.31,4.94-19.9,6.13-1.92,20.87,19.07,23.66,24.27s9.89,23.65,9.89,28.62v24.07ZM300.59,271.68c29.52-27.61,52.47-64.87,65.26-103.22,2.78-8.33,6.41-17.32,6.24-26.07-37.65,33.18-63.7,79.56-71.49,129.29ZM524.76,207.06c-48.1-5.23-97.27,4.36-141.66,22.67,1.56,2.28,3.76,1.98,6.11,2.15,41.65,3,85.75-3.01,124.53-18.67,3.38-1.37,8.85-3.26,11.03-6.15ZM234.55,246.93v33.7c0,5.62,6.17,25.24,8.57,31.31,1.18,2.97,4.88,12.4,7.26,13.37,2.95.62,1.82-1.21,2.4-3.02,6.25-19.29,5.35-39.5-3.51-57.77-1.61-3.32-8.25-14.67-10.55-16.66-1.56-1.35-2.27-1.03-4.19-.93ZM333.58,292.33c-1.65-1.3-17.66,8.64-20.51,10.42-24.43,15.18-57.92,44.02-73.58,68.08-1.1,1.68-2.57,3.12-2.17,5.38,40.19-16.06,74.91-46.37,96.27-83.88ZM227.67,356.95c-.79-6.97-2.6-13.7-5.25-20.18-.67-1.65-8.53-18.28-11.25-15.56,3.04,11.42,6.01,23.36,12.94,33.16,1.15,1.63.04,3.37,3.55,2.58ZM245.55,421.61c-2.59-.6-3.26,1.46-4.81,2.74-17.12,14.13-29.37,36.06-33.69,57.76,1.49,1.53,13.05-10.73,14.45-12.35,11.52-13.37,20.11-30.98,24.05-48.15Z"/>
      <path d="M735.2,691.18l-25.37,26.2c-7.47,54.77-33.79,109.34-75.68,145.76-2.91,2.53-13.89,12.84-17.23,9.6,3.9-43.04,24.44-82.88,48.14-118.28l-53.68,26.76c-48.25,18.76-101.5,26.08-152.98,18.29-10.76-6.12,7.53-12.47,13.18-15.04,42.35-19.29,88.66-26.54,135.08-24.58,19.64.83,19.42,6.76,38.69-3.83,30.32-16.67,60.28-42.34,82.3-68.99,3.72-4.5,18.3-22.89,19.91-26.86.26-.63.36-2.25-.66-2.03-20.83,21.21-45.04,41-71.29,55.24-3.07,1.67-17.56,9.42-19.56,9.4-1.65-.01-2.7-.73-3.21-2.29-1.99-6.13,11.96-26,16.04-31.72,25.55-35.92,61.06-62.55,102.65-77.53l1.9-2.23c6.75-17.92,13-36.28,15.4-55.42-7.65,10.24-15.57,20.58-25.47,28.84-2.89,2.41-15.36,12.84-18.35,8.11,1.77-33.87,21.98-65.26,49.11-84.63,2.21-82.96-33.38-165.88-93.95-221.94-10.44-9.66-23.61-17.63-32.41-28.16l2.29-3.34c4.4-1.33,17.72,10.37,21.8,13.69,105.61,85.75,140.91,238.9,81.9,362.42,11.13,14.55,21.44,32.32,23.19,51.02,2.48,26.46-9.97,13.97-18.85.97-6.68-9.77-11.52-21.57-12.63-33.46-3.83,3.78-11.64,14.35-10.41,19.25.84,3.38,4.99,8.95,6.54,12.83,8.96,22.32,13.95,43.2,12.12,67.62-.44,5.88-1.53,15.31-4.94,19.9-6.37,1.99-20.88-19.08-23.66-24.27-2.74-5.1-9.89-23.64-9.89-28.62v-22.69ZM754.47,578.4c20.69-13.43,33.53-36.65,38.49-60.52-19.79,13.35-33.23,37.38-38.49,60.52ZM764.08,623.8c-32.7,11.65-63.41,35.83-84.47,63.37-2.04,2.67-14.7,20.06-13.17,21.89,38.81-20.19,72.63-49.38,97.64-85.26ZM775.06,643.05c-2.39-.07-2.92-.78-2.62,1.93.59,5.32,2.76,12.26,4.74,17.29.66,1.68,8.85,19.33,11.67,16.52-2.69-12.72-7.59-24.4-13.78-35.74ZM761.36,753.07c1.49.27,2.6-.03,3.43-1.35,1.36-2.14.93-26.34.5-30.8-.95-9.9-7.98-36.29-13.81-43.96-1.18-1.56-1.44-2.82-3.9-2.28-8.87,28.08-3.98,55.18,13.77,78.38ZM626.55,857.6c2.59.6,3.26-1.46,4.81-2.74,4.85-3.99,11.53-11.06,15.78-15.86,26.99-30.47,45.96-70.43,52.29-110.68-36.51,34.48-60.95,80.6-72.88,129.28ZM615.53,768.21c-42.71-1.84-84.13,1.25-124.14,16.82l-17.51,7.92c43.3,4.21,90.87-1.66,131.38-17.83,1.27-.51,13.09-4.66,10.27-6.9Z"/>
    </g>
  </g>
  <g>
    <path d="M413.44,456.55c-3.5-20.76-7.7-24.49-35.92-24.49h-30.79c-6.76,0-7.93,1.87-7.93,9.1v50.61h33.12c19.59,0,24.26-3.97,26.36-22.16h5.36v54.35h-5.36c-1.87-19.13-6.3-22.63-26.36-22.63h-33.12v50.15c0,17.73,3.27,20.76,21.23,21.69v4.43h-65.54v-4.43c17.73-1.17,20.53-3.97,20.53-24.26v-99.83c0-17.03-2.33-20.06-20.29-21.46v-4.43h123.39l1.17,33.35h-5.83Z"/>
    <path d="M536.33,562.31c-4.44,11.17-12.85,17.28-23.1,17.28-8.87,0-16.37-3.98-26-13.92-11.47,10.1-20.65,13.92-33.04,13.92-16.37,0-26.15-7.65-26.15-22.94,0-12.39,8.41-24.32,24.01-33.35l5.81-3.36c-4.28-10.4-5.35-15.91-5.35-22.79,0-13.76,10.25-22.94,23.25-22.94,12.08,0,20.95,6.88,20.95,18.97,0,11.01-5.81,18.05-23.71,25.69,6.27,13.46,11.63,21.87,20.19,31.51,9.94-13.15,14.07-20.5,14.07-27.53,0-4.59-2.3-6.42-9.94-7.19v-3.21h33.04v3.21c-7.65,0-10.55,2.91-14.38,9.03-7.04,11.16-10.86,18.66-19.27,29.98,7.19,9.33,13.92,14.07,23.25,14.07,5.97,0,9.18-1.99,14.07-8.11l2.29,1.68ZM460.16,525.15c-13.31,8.57-18.05,15.3-18.05,25.85,0,13,8.11,20.5,18.97,20.5,6.58,0,13.15-2.6,22.33-9.79-8.87-10.4-14.99-19.27-23.25-36.56ZM476.67,479.11c-7.19,0-12.08,5.05-12.08,12.7s1.07,12.85,6.12,22.18c13.15-5.97,17.89-12.39,17.89-21.41,0-7.49-4.89-13.46-11.93-13.46Z"/>
    <path d="M646.04,577.61v-4.43c8.4,0,10.03-.46,12.83-2.1,1.86-.93,3.26-3.5,3.26-5.6,0-3.5-1.63-9.8-4.43-16.33l-9.56-21.93h-61.11l-10.73,26.59c-1.17,3.03-2.1,7-2.1,9.79,0,7.23,5.13,9.56,16.33,9.56v4.43h-46.42v-4.43c13.53-1.4,15.63-6.3,29.39-38.95l48.05-113.82h4.67l57.38,131.32c6.53,15.16,9.79,20.06,21.92,21.46v4.43h-59.48ZM617.82,453.52l-26.82,64.14h53.88l-27.06-64.14Z"/>
  </g>
</svg>