<?xml version="1.0" encoding="UTF-8"?>
<svg id="Layer_1" xmlns="http://www.w3.org/2000/svg" version="1.1" viewBox="0 0 1000 1000">
  <!-- Generator: Adobe Illustrator 29.1.0, SVG Export Plug-In . SVG Version: 2.1.0 Build 142)  -->
  <g id="es6Cm2.tif">
    <g>
      <path d="M666.15,207.53H196.46v585.05h469.69v-188.15c0-.93,3.09-6.86,4.1-7.8,7.28-6.75,18.68-3.04,21.48,6.02l.07,205.06c-.81,6.86-8.66,10.82-15.09,10.55H185.9c-7.6.14-14.99-4.21-15.1-12.36l.47-615.78c1.25-3.68,3.82-5.84,7.31-7.34,167.59-1.88,335.64-.59,503.39-.65,5.39,1,9.13,4.81,9.85,10.29l-.08,112.58c-2.46,10.97-17.09,13.61-23.25,4.14-.47-.72-2.33-4.62-2.33-5v-96.59Z"/>
      <path d="M431.16,700.71c-3.6-3.58-3.5-8.78-2.64-13.47,2.65-14.41,12.81-38.57,17.88-53.53,8.36-24.65,17.39-49.13,26.15-73.64l201.88-201.89c4.06-2.23,8.35-3.11,12.48-.65,30.56,27.98,60.26,57.86,88.39,88.31,1.42,4,1.18,9.17-1.54,12.6l-201.96,201.81-128.09,44.03c-3.89,1.49-9.77-.79-12.56-3.55ZM681.26,387l-37.01,37.85,63.57,63.74,37.01-37.85-63.57-63.74ZM625.53,442.89l-119.59,119.42,63.74,63.57,119.26-118.68-63.41-64.3ZM548.96,641.5l-58.59-57.67-17.36,51.77c2.25,3.65,22.27,24.06,24.74,23.84l51.21-17.94Z"/>
      <path d="M257.57,283.74l344.99-.26c17.51,1.16,17.48,24.57,0,25.71h-342.5c-15.98-.83-18.06-21.73-2.49-25.45Z"/>
      <path d="M594.43,389.12c7.44,7.37,1.79,22.43-9.26,21.7l-326.92-.02c-16.03-3.23-14.65-24.74,1.81-25.69h324.19c3.2.11,7.93,1.78,10.18,4.01Z"/>
      <path d="M486.39,490.75c7.18,7.18,3.08,20.42-7.45,21.68l-220.67-.02c-13.27-1.52-15.86-20.53-2.54-24.51,73.19-2.64,147.04-.34,220.48-1.16,3.18.11,7.95,1.78,10.18,4.01Z"/>
      <path d="M730.9,303.88c4.47-.93,8.78-.12,12.17,2.97l84.57,85.72c2.28,4.9,2.11,8.19-.88,12.66-1.81,2.71-22.3,23.18-24.8,24.65-12.01,7.05-24.16-6.39-16.65-18.48,2.51-4.04,10.6-9.27,12.27-12.52.36-.71.61-1.13,0-1.82l-63.23-62.3c-3.03,0-10.71,12.73-17.46,13.71-11.67,1.7-19.26-10.2-12.69-20.03,2.35-3.52,17.77-18.78,21.43-21.6,1.5-1.15,3.4-2.58,5.26-2.97Z"/>
      <path d="M259.42,588.64l153.56-.22c16.8-.13,20.22,21.92,3.7,25.64l-160.19-.07c-13.97-5.38-12.64-23.11,2.93-25.35Z"/>
      <path d="M255.71,691.14l136.18-.14c13.23,3.96,12.53,21.93-.84,24.7l-134.56-.07c-12.57-3.79-12.95-19.87-.77-24.48Z"/>
    </g>
  </g>
</svg>